<svg width="16" height="16" viewBox="0 0 16 16" fill="none" xmlns="http://www.w3.org/2000/svg">
<g clip-path="url(#clip0_436_97)">
<path d="M12.3408 12.9229C11.1837 13.9439 9.66451 14.5644 8 14.5645C6.33598 14.5645 4.81714 13.9443 3.66016 12.9238L3.97949 13.1719C5.08932 14.0358 6.4852 14.5508 8 14.5508C9.51504 14.5508 10.9116 14.036 12.0215 13.1719L12.3408 12.9229ZM8 10.127C9.70158 10.127 11.1972 11.0104 12.0518 12.3447L12.3926 12.877C12.3833 12.8853 12.3736 12.8931 12.3643 12.9014L12.1465 12.5254C11.3161 11.0987 9.76956 10.1396 8 10.1396C6.23032 10.1398 4.68466 11.0995 3.85449 12.5264L3.63574 12.9023C3.62644 12.8941 3.61668 12.8863 3.60742 12.8779L3.94922 12.3457C4.80357 11.0112 6.29829 10.1271 8 10.127ZM8 1.43555C11.6253 1.4356 14.5645 4.37464 14.5645 8C14.5644 9.84691 13.8 11.5142 12.5723 12.707L12.8418 12.4121C13.9029 11.2483 14.5508 9.69932 14.5508 8C14.5508 4.382 11.6179 1.44927 8 1.44922C4.38197 1.44922 1.44922 4.38197 1.44922 8C1.44924 9.69961 2.09671 11.2492 3.1582 12.4131L3.42383 12.7051C2.19778 11.5125 1.43557 9.84547 1.43555 8C1.43555 4.37461 4.37461 1.43555 8 1.43555ZM8 4.93164C9.10823 4.93164 10.0068 5.83026 10.0068 6.93848C10.0068 8.04673 9.10825 8.94531 8 8.94531C6.89177 8.94528 5.99316 8.04671 5.99316 6.93848C5.99321 5.83028 6.8918 4.93167 8 4.93164ZM8 4.94531C6.89916 4.94534 6.00688 5.83764 6.00684 6.93848C6.00684 8.03935 6.89914 8.93161 8 8.93164C9.10089 8.93164 9.99316 8.03937 9.99316 6.93848C9.99312 5.83763 9.10086 4.94531 8 4.94531Z" fill="#09090B" stroke="#09090B"/>
</g>
<defs>
<clipPath id="clip0_436_97">
<rect width="16" height="16" fill="white"/>
</clipPath>
</defs>
</svg>
