<svg width="15" height="11" viewBox="0 0 15 11" fill="none" xmlns="http://www.w3.org/2000/svg">
<path d="M8.5 9.83333C8.5 8.77247 8.07857 7.75505 7.32843 7.00491C6.57828 6.25476 5.56087 5.83333 4.5 5.83333M4.5 5.83333C3.43913 5.83333 2.42172 6.25476 1.67157 7.00491C0.921427 7.75505 0.5 8.77247 0.5 9.83333M4.5 5.83333C5.97276 5.83333 7.16667 4.63943 7.16667 3.16667C7.16667 1.69391 5.97276 0.5 4.5 0.5C3.02724 0.5 1.83333 1.69391 1.83333 3.16667C1.83333 4.63943 3.02724 5.83333 4.5 5.83333ZM13.8333 9.83333C13.8333 8.77247 13.4119 7.75505 12.6618 7.00491C11.9116 6.25476 10.8942 5.83333 9.83333 5.83333C10.5406 5.83333 11.2189 5.55238 11.719 5.05228C12.219 4.55219 12.5 3.87391 12.5 3.16667C12.5 2.45942 12.219 1.78115 11.719 1.28105C11.2189 0.780951 10.5406 0.5 9.83333 0.5" stroke="#09090B" stroke-linecap="round" stroke-linejoin="round"/>
</svg>
