<svg width="16" height="14" viewBox="0 0 16 14" fill="none" xmlns="http://www.w3.org/2000/svg">
<path d="M7.74219 0.540039C7.79669 0.486706 7.88409 0.486534 7.93848 0.540039L15.1377 7.62305C15.1928 7.67726 15.1939 7.76614 15.1396 7.82129C15.0854 7.87612 14.9964 7.87633 14.9414 7.82227L14.0576 6.95215L13.207 6.11523V13.2803C13.2069 13.2986 13.1912 13.3135 13.1729 13.3135H2.50684C2.48854 13.3135 2.47377 13.2985 2.47363 13.2803V6.11523L1.62305 6.95215L0.738281 7.82227C0.683207 7.87644 0.594272 7.87627 0.540039 7.82129C0.485818 7.76617 0.486874 7.67727 0.541992 7.62305L7.74219 0.540039ZM6.80664 13.2471H9.94043V9.04688H6.80664V13.2471ZM13.1396 6.0498L12.9902 5.90332L8.19043 1.18164L7.83984 0.835938L7.48926 1.18164L2.68945 5.90332L2.54004 6.0498V13.2471H6.74023V9.01367C6.74023 8.99526 6.75503 8.98047 6.77344 8.98047H9.97363C9.99188 8.98063 10.0068 8.99534 10.0068 9.01367V13.2471H13.1396V6.0498Z" fill="#09090B" stroke="#09090B"/>
</svg>
