<svg width="15" height="15" viewBox="0 0 15 15" fill="none" xmlns="http://www.w3.org/2000/svg">
<path d="M12.5 7.16667V13.8333H1.83333V7.16667M7.16667 13.8333V3.83333M7.16667 3.83333H4.16667C3.72464 3.83333 3.30072 3.65774 2.98816 3.34518C2.67559 3.03262 2.5 2.60869 2.5 2.16667C2.5 1.72464 2.67559 1.30072 2.98816 0.988155C3.30072 0.675595 3.72464 0.5 4.16667 0.5C6.5 0.5 7.16667 3.83333 7.16667 3.83333ZM7.16667 3.83333H10.1667C10.6087 3.83333 11.0326 3.65774 11.3452 3.34518C11.6577 3.03262 11.8333 2.60869 11.8333 2.16667C11.8333 1.72464 11.6577 1.30072 11.3452 0.988155C11.0326 0.675595 10.6087 0.5 10.1667 0.5C7.83333 0.5 7.16667 3.83333 7.16667 3.83333ZM0.5 3.83333H13.8333V7.16667H0.5V3.83333Z" stroke="#09090B" stroke-linecap="round" stroke-linejoin="round"/>
</svg>
