<svg width="13" height="15" viewBox="0 0 13 15" fill="none" xmlns="http://www.w3.org/2000/svg">
<path d="M10.3769 4.5C10.7305 4.5 11.0697 4.35952 11.3197 4.10948C11.5697 3.85943 11.7102 3.52029 11.7102 3.16667C11.7102 2.81304 11.5697 2.47391 11.3197 2.22386C11.0697 1.97381 10.7305 1.83333 10.3769 1.83333C10.3769 1.47971 10.2364 1.14057 9.98637 0.890524C9.73632 0.640476 9.39718 0.5 9.04356 0.5C8.68993 0.5 8.3508 0.640476 8.10075 0.890524C7.8507 1.14057 7.71022 1.47971 7.71022 1.83333C7.71022 1.47971 7.56975 1.14057 7.3197 0.890524C7.06965 0.640476 6.73051 0.5 6.37689 0.5C6.02327 0.5 5.68413 0.640476 5.43408 0.890524C5.18403 1.14057 5.04356 1.47971 5.04356 1.83333C5.04356 1.47971 4.90308 1.14057 4.65303 0.890524C4.40298 0.640476 4.06385 0.5 3.71022 0.5C3.3566 0.5 3.01746 0.640476 2.76741 0.890524C2.51737 1.14057 2.37689 1.47971 2.37689 1.83333C2.02327 1.83333 1.68413 1.97381 1.43408 2.22386C1.18403 2.47391 1.04356 2.81304 1.04356 3.16667C1.04356 3.52029 1.18403 3.85943 1.43408 4.10948C1.68413 4.35952 2.02327 4.5 2.37689 4.5M5.04356 13.8333L4.37689 4.5M7.71022 13.8333L8.37689 4.5M11.7102 4.5C12.0436 4.5 12.3102 4.76667 12.2436 5.16667L10.5102 13.1667C10.4436 13.5 10.0436 13.8333 9.71022 13.8333H3.04356C2.64356 13.8333 2.31022 13.5667 2.24356 13.1667L0.510223 5.16667C0.443556 4.76667 0.710223 4.5 1.04356 4.5H11.7102Z" stroke="#09090B" stroke-linecap="round" stroke-linejoin="round"/>
</svg>
